<svg xmlns="http://www.w3.org/2000/svg" viewBox="0 0 1600 900" role="img" aria-labelledby="title desc">
  <title id="title">Brussels rooftops</title>
  <desc id="desc">An illustrated Brussels rooftop horizon with warm light and layered facades.</desc>
  <defs>
    <linearGradient id="dawn" x1="0" x2="1" y1="0" y2="1">
      <stop offset="0%" stop-color="#f0d1a8"/>
      <stop offset="40%" stop-color="#d58b67"/>
      <stop offset="100%" stop-color="#354743"/>
    </linearGradient>
  </defs>
  <rect width="1600" height="900" fill="url(#dawn)"/>
  <rect y="560" width="1600" height="340" fill="#21312f"/>
  <circle cx="365" cy="205" r="110" fill="#f3ddba" opacity="0.4"/>
  <rect x="80" y="410" width="165" height="235" fill="#6a5550"/>
  <rect x="250" y="360" width="140" height="285" fill="#815d54"/>
  <rect x="392" y="385" width="154" height="260" fill="#966d5e"/>
  <rect x="560" y="338" width="178" height="307" fill="#725953"/>
  <rect x="748" y="392" width="144" height="253" fill="#5f4a47"/>
  <rect x="900" y="352" width="154" height="293" fill="#826258"/>
  <rect x="1066" y="402" width="143" height="243" fill="#6f5750"/>
  <rect x="1218" y="332" width="175" height="313" fill="#8d6759"/>
  <rect x="1398" y="376" width="126" height="269" fill="#6b504b"/>
  <polygon points="80,410 162,340 245,410" fill="#493a38"/>
  <polygon points="250,360 320,298 390,360" fill="#5c4743"/>
  <polygon points="392,385 468,330 546,385" fill="#6d524a"/>
  <polygon points="560,338 648,264 738,338" fill="#503d39"/>
  <polygon points="748,392 820,330 892,392" fill="#42322f"/>
  <polygon points="900,352 976,292 1054,352" fill="#624a43"/>
  <polygon points="1066,402 1138,338 1209,402" fill="#4e3e3a"/>
  <polygon points="1218,332 1306,256 1394,332" fill="#5f4840"/>
  <polygon points="1398,376 1461,321 1524,376" fill="#4a3935"/>
  <g fill="#efdfc1" opacity="0.55">
    <rect x="115" y="458" width="28" height="48"/>
    <rect x="170" y="458" width="28" height="48"/>
    <rect x="284" y="419" width="26" height="42"/>
    <rect x="329" y="419" width="26" height="42"/>
    <rect x="430" y="438" width="26" height="42"/>
    <rect x="476" y="438" width="26" height="42"/>
    <rect x="603" y="397" width="28" height="50"/>
    <rect x="659" y="397" width="28" height="50"/>
    <rect x="783" y="446" width="24" height="40"/>
    <rect x="827" y="446" width="24" height="40"/>
    <rect x="942" y="403" width="26" height="44"/>
    <rect x="987" y="403" width="26" height="44"/>
    <rect x="1106" y="448" width="25" height="44"/>
    <rect x="1150" y="448" width="25" height="44"/>
    <rect x="1260" y="387" width="28" height="48"/>
    <rect x="1317" y="387" width="28" height="48"/>
    <rect x="1430" y="425" width="24" height="42"/>
  </g>
  <rect x="668" y="187" width="18" height="160" fill="#dbc8a9" opacity="0.65"/>
  <circle cx="677" cy="179" r="33" fill="#f0d6a4" opacity="0.46"/>
</svg>
